<svg width="100" height="50" viewBox="0 0 100 50" fill="none" xmlns="http://www.w3.org/2000/svg">
<rect x="1" y="1" width="46.2532" height="48" rx="1" stroke="#22AA00" stroke-width="2"/>
<ellipse cx="24.1266" cy="25" rx="13.4037" ry="13.8889" fill="#22AA00"/>
<path d="M53.2532 7.14C53.7598 7.02 54.3065 6.94 54.8932 6.9C55.4798 6.86 56.0598 6.84 56.6332 6.84C57.2465 6.84 57.8665 6.9 58.4932 7.02C59.1332 7.14 59.7132 7.36 60.2332 7.68C60.7532 8 61.1732 8.44 61.4932 9C61.8265 9.56 61.9932 10.2733 61.9932 11.14C61.9932 11.9933 61.8398 12.7133 61.5332 13.3C61.2265 13.8867 60.8198 14.3667 60.3132 14.74C59.8065 15.1 59.2265 15.36 58.5732 15.52C57.9198 15.68 57.2465 15.76 56.5532 15.76C56.4865 15.76 56.3732 15.76 56.2132 15.76C56.0665 15.76 55.9065 15.76 55.7332 15.76C55.5732 15.7467 55.4132 15.7333 55.2532 15.72C55.0932 15.7067 54.9798 15.6933 54.9132 15.68V21H53.2532V7.14ZM56.6732 8.28C56.3265 8.28 55.9932 8.28667 55.6732 8.3C55.3532 8.31333 55.0998 8.34667 54.9132 8.4V14.2C54.9798 14.2267 55.0865 14.2467 55.2332 14.26C55.3798 14.26 55.5332 14.2667 55.6932 14.28C55.8532 14.28 56.0065 14.28 56.1532 14.28C56.2998 14.28 56.4065 14.28 56.4732 14.28C56.9265 14.28 57.3732 14.24 57.8132 14.16C58.2665 14.0667 58.6732 13.9067 59.0332 13.68C59.3932 13.4533 59.6798 13.1333 59.8932 12.72C60.1198 12.3067 60.2332 11.78 60.2332 11.14C60.2332 10.5933 60.1265 10.14 59.9132 9.78C59.7132 9.40667 59.4398 9.11333 59.0932 8.9C58.7598 8.67333 58.3798 8.51333 57.9532 8.42C57.5265 8.32667 57.0998 8.28 56.6732 8.28ZM72.4454 7H74.0454V16.34C74.0454 17.18 73.932 17.9067 73.7054 18.52C73.492 19.1333 73.1854 19.64 72.7854 20.04C72.3854 20.4267 71.8987 20.7133 71.3254 20.9C70.752 21.0867 70.1187 21.18 69.4254 21.18C67.772 21.18 66.5254 20.8067 65.6854 20.06C64.8587 19.3133 64.4454 18.18 64.4454 16.66V7H66.1054V15.88C66.1054 16.5867 66.172 17.1867 66.3054 17.68C66.452 18.16 66.6587 18.5533 66.9254 18.86C67.2054 19.1533 67.552 19.3667 67.9654 19.5C68.392 19.6333 68.8854 19.7 69.4454 19.7C70.5254 19.7 71.292 19.4067 71.7454 18.82C72.212 18.22 72.4454 17.24 72.4454 15.88V7ZM77.2375 7.14C77.7442 7.04667 78.3242 6.97333 78.9775 6.92C79.6442 6.86667 80.2509 6.84 80.7975 6.84C81.4109 6.84 81.9909 6.90667 82.5375 7.04C83.0975 7.17333 83.5842 7.39333 83.9975 7.7C84.4242 8.00667 84.7642 8.40667 85.0175 8.9C85.2709 9.39333 85.3975 9.99333 85.3975 10.7C85.3975 11.2467 85.3042 11.7333 85.1175 12.16C84.9442 12.5733 84.7242 12.9333 84.4575 13.24C84.2042 13.5333 83.9375 13.7733 83.6575 13.96C83.3775 14.1467 83.1375 14.28 82.9375 14.36L86.6375 21H84.6975L81.3975 14.84H78.8975V21H77.2375V7.14ZM80.8375 8.28C80.6642 8.28 80.4842 8.28 80.2975 8.28C80.1109 8.28 79.9309 8.28667 79.7575 8.3C79.5842 8.31333 79.4175 8.32667 79.2575 8.34C79.1109 8.35333 78.9909 8.37333 78.8975 8.4V13.56H80.4575C81.3775 13.56 82.1375 13.3333 82.7375 12.88C83.3375 12.4267 83.6375 11.72 83.6375 10.76C83.6375 10.04 83.3909 9.44667 82.8975 8.98C82.4042 8.51333 81.7175 8.28 80.8375 8.28ZM89.3697 7H97.5897V8.48H91.0297V13.06H97.0897V14.54H91.0297V19.52H97.6897V21H89.3697V7ZM53.1932 29H61.1132V38.04C61.1132 39.72 60.7132 41 59.9132 41.88C59.1132 42.76 57.9598 43.2 56.4532 43.2C56.0665 43.2 55.6865 43.1667 55.3132 43.1C54.9398 43.0333 54.5932 42.9467 54.2732 42.84C53.9532 42.72 53.6732 42.5933 53.4332 42.46C53.2065 42.3267 53.0398 42.2 52.9332 42.08L53.6532 40.76C53.7998 40.8533 53.9598 40.9533 54.1332 41.06C54.3198 41.1667 54.5198 41.2733 54.7332 41.38C54.9598 41.4733 55.2065 41.5533 55.4732 41.62C55.7532 41.6867 56.0665 41.72 56.4132 41.72C57.4132 41.72 58.1665 41.4067 58.6732 40.78C59.1932 40.1533 59.4532 39.14 59.4532 37.74V30.48H53.1932V29ZM71.8654 39.12H66.4854L65.2054 43H63.5654L68.2454 29H70.2054L74.9254 43H73.1854L71.8654 39.12ZM67.0054 37.68H71.4054L69.3454 31.1H69.1054L67.0054 37.68ZM76.4375 29H86.0375V30.48H82.0575V41.52H86.0375V43H76.4375V41.52H80.3975V30.48H76.4375V29ZM91.1497 34.24L90.0697 32.22H89.9897L90.1897 34.24V43H88.6297V29H89.7097L95.3497 37.72L96.3897 39.64H96.4897L96.2697 37.72V29H97.8297V43H96.7497L91.1497 34.24Z" fill="#22AA00"/>
</svg>
