<svg width="291" height="282" viewBox="0 0 291 282" fill="none" xmlns="http://www.w3.org/2000/svg">
<ellipse cx="145.5" cy="141" rx="145.5" ry="141" fill="#FFA500"/>
<path d="M106.571 144.25H109.371C110.537 144.25 111.521 144.083 112.321 143.75C113.154 143.383 113.904 142.8 114.571 142L135.471 116.5C136.304 115.4 137.204 114.667 138.171 114.3C139.171 113.9 140.321 113.7 141.621 113.7H152.771L127.171 143.95C126.437 144.883 125.704 145.667 124.971 146.3C124.237 146.9 123.471 147.383 122.671 147.75C123.637 148.15 124.487 148.7 125.221 149.4C125.987 150.067 126.654 150.983 127.221 152.15L145.621 186H134.171C133.404 186 132.754 185.95 132.221 185.85C131.687 185.717 131.221 185.55 130.821 185.35C130.454 185.117 130.137 184.85 129.871 184.55C129.637 184.217 129.421 183.85 129.221 183.45L114.321 156.5C113.887 155.6 113.287 154.967 112.521 154.6C111.787 154.233 110.704 154.05 109.271 154.05H105.371L101.471 186H88.5707L97.3707 113.65H110.371L106.571 144.25ZM179.518 175.8C181.551 175.8 183.318 175.65 184.818 175.35C186.318 175.017 187.634 174.6 188.768 174.1C189.901 173.6 190.851 173.083 191.618 172.55C192.418 171.983 193.118 171.45 193.718 170.95C194.318 170.45 194.851 170.05 195.318 169.75C195.784 169.417 196.251 169.25 196.718 169.25C197.151 169.25 197.501 169.333 197.768 169.5C198.034 169.667 198.251 169.833 198.418 170L202.968 175.65C199.834 179.25 196.151 182.017 191.918 183.95C187.684 185.85 182.818 186.8 177.318 186.8C172.851 186.8 168.884 186.017 165.418 184.45C161.951 182.85 159.018 180.65 156.618 177.85C154.251 175.05 152.434 171.733 151.168 167.9C149.934 164.067 149.318 159.883 149.318 155.35C149.318 151.183 149.768 147.25 150.668 143.55C151.568 139.817 152.851 136.383 154.518 133.25C156.184 130.083 158.168 127.25 160.468 124.75C162.801 122.25 165.384 120.117 168.218 118.35C171.084 116.583 174.151 115.233 177.418 114.3C180.718 113.367 184.151 112.9 187.718 112.9C190.351 112.9 192.751 113.15 194.918 113.65C197.084 114.117 199.034 114.783 200.768 115.65C202.534 116.517 204.118 117.567 205.518 118.8C206.951 120 208.234 121.35 209.368 122.85L204.868 128.25C204.534 128.65 204.134 129 203.668 129.3C203.234 129.6 202.684 129.75 202.018 129.75C201.284 129.75 200.584 129.45 199.918 128.85C199.251 128.25 198.401 127.6 197.368 126.9C196.368 126.167 195.051 125.5 193.418 124.9C191.818 124.3 189.701 124 187.068 124C183.601 124 180.368 124.717 177.368 126.15C174.401 127.55 171.818 129.567 169.618 132.2C167.418 134.833 165.684 138.017 164.418 141.75C163.184 145.45 162.568 149.617 162.568 154.25C162.568 157.617 162.984 160.633 163.818 163.3C164.684 165.967 165.868 168.233 167.368 170.1C168.901 171.933 170.701 173.35 172.768 174.35C174.834 175.317 177.084 175.8 179.518 175.8Z" fill="white"/>
</svg>
